<?xml version="1.0" standalone="no"?>
<!DOCTYPE svg PUBLIC "-//W3C//DTD SVG 20010904//EN"
 "http://www.w3.org/TR/2001/REC-SVG-20010904/DTD/svg10.dtd">
<svg version="1.0" xmlns="http://www.w3.org/2000/svg"
 width="512.000000pt" height="512.000000pt" viewBox="0 0 512.000000 512.000000"
 preserveAspectRatio="xMidYMid meet">

<g transform="translate(0.000000,512.000000) scale(0.100000,-0.100000)"
fill="#000000" stroke="none">
<path d="M2517 5106 c-94 -34 -102 -58 -102 -296 0 -185 1 -197 23 -231 41
-66 145 -93 200 -52 64 48 67 57 70 269 3 182 2 198 -18 239 -16 32 -32 49
-64 64 -49 24 -58 25 -109 7z"/>
<path d="M1253 4900 c-73 -33 -105 -120 -69 -188 22 -42 277 -290 311 -302 85
-32 185 41 185 135 0 55 -18 79 -162 222 -162 160 -183 171 -265 133z"/>
<path d="M3745 4904 c-37 -19 -271 -249 -291 -286 -44 -83 10 -197 101 -214
69 -13 93 2 233 140 74 72 140 143 148 158 63 121 -72 264 -191 202z"/>
<path d="M4920 4657 c-32 -12 -470 -336 -533 -395 -36 -34 -51 -90 -38 -140
17 -62 56 -90 186 -131 l118 -38 -84 -65 c-46 -35 -106 -81 -134 -102 -60 -44
-85 -86 -85 -141 0 -96 99 -168 189 -137 34 12 515 371 543 406 33 39 42 94
23 142 -23 61 -51 79 -182 120 -62 19 -113 37 -113 38 0 2 61 49 135 105 141
106 165 135 165 198 0 101 -98 173 -190 140z"/>
<path d="M72 4635 c-64 -54 -78 -119 -41 -184 13 -22 71 -74 151 -135 71 -54
127 -100 124 -103 -3 -3 -52 -21 -108 -39 -57 -18 -113 -39 -126 -46 -60 -32
-84 -148 -41 -202 26 -32 496 -390 543 -412 91 -44 207 44 193 148 -8 59 -27
80 -165 184 -70 52 -128 99 -130 103 -1 4 39 20 90 36 125 39 165 60 188 98
24 38 26 106 6 145 -8 16 -127 114 -277 227 -260 197 -264 199 -319 203 -49 4
-60 1 -88 -23z"/>
</g>
</svg>
