<?xml version="1.0" encoding="utf-8"?>
<!-- Generator: Adobe Illustrator 27.5.0, SVG Export Plug-In . SVG Version: 6.00 Build 0)  -->
<svg version="1.1" id="Ñëîé_1" xmlns="http://www.w3.org/2000/svg" xmlns:xlink="http://www.w3.org/1999/xlink" x="0px" y="0px"
	 viewBox="0 0 800 800" style="enable-background:new 0 0 800 800;" xml:space="preserve">
<g>
	<path style="fill:#AD90D3;" d="M283.446,641.551c0.03-5.094-7.798-9.269-17.483-9.325c-9.686-0.057-17.56,4.026-17.59,9.122
		c-0.029,5.092,7.799,9.267,17.483,9.324C275.542,650.727,283.417,646.644,283.446,641.551z"/>
	<path style="fill:#99536A;" d="M395.657,597.691c0-157.32-0.658-261.421-0.658-330.564c0-85.882,7.341-136.163,39.731-142.377
		c24.129-4.631,46.596,12.428,51.141,32.767c27.274-4.521,55.903,23.324,62.343,57.862c48.535,2.857,84.169,59.095,70.657,108.723
		c35.041,18.154,53.68,62.161,43.775,100.204c29.698,31.095,24.005,88.084-11.977,119.781c18.088,37.44-20.468,99.292-80.273,95.129
		C538.883,708.191,395.657,671.629,395.657,597.691z"/>
	<path style="fill:#675191;" d="M399.98,600.146c-0.432-157.32-1.63-264.046-1.592-333.188
		c0.047-86.134-5.453-136.226-35.294-142.37c-23.554-4.851-47.376,11.441-49.543,31.786c-22.24-5.589-58.886,24.586-65.118,59.245
		c-47.467,2.988-82.128,59.32-68.792,108.912c-34.082,18.179-52.347,62.161-42.53,100.324
		c-28.952,31.173-23.681,101.552,12.041,119.747c-17.525,37.368,27.964,107.05,78.751,94.914
		C258.915,708.409,400.182,673.441,399.98,600.146z"/>
	<path style="fill:#AD90D3;" d="M387.508,598.102c0.513-149.026,1.237-247.642,1.673-313.139
		c0.544-81.593-4.265-129.043-31.893-134.866c-21.807-4.596-43.986,10.836-46.114,30.107c-20.584-5.295-54.733,23.286-60.711,56.119
		c-44.023,2.829-76.482,56.188-64.405,103.167c-31.702,17.219-48.89,58.881-40.01,95.032
		c-27.021,29.526-21.38,89.793,11.629,107.032c-16.463,35.396,24.14,107.813,71.294,96.316
		C257.321,703.134,387.27,667.531,387.508,598.102z"/>
	<path style="fill:#947FBF;" d="M296.223,646.533c18.31,4.882,80.158-30.11,91.958-66.731c0,0,16.683,70.798-59.405,86.26
		C252.686,681.525,296.223,646.533,296.223,646.533z"/>
	<path style="fill:#947FBF;" d="M240.988,504.63c7.019-6.714,28.686-21.057,29.601-32.042c0.915-10.986,3.967-32.653,20.446-38.146
		c0,0-21.667,19.836-1.221,55.235C282.808,484.276,266.513,490.055,240.988,504.63z"/>
	<path style="fill:#947FBF;" d="M229.494,341.365c-8.545-2.849-41.909-31.33-36.62-63.475c0,0-15.462,34.179-8.545,59.813
		L229.494,341.365z"/>
	<path style="fill:#947FBF;" d="M330.402,374.934c-13.428,0-40.892-28.075-25.024-55.54c0,0-28.178,25.403-15.869,53.099
		C299.275,394.464,330.402,374.934,330.402,374.934z"/>
	<path style="fill:#947FBF;" d="M370.685,338.517c6.595,9.519-2.849,41.503-27.669,36.214c0,0,16.968,17.531,36.11,8.485
		C397.946,374.324,370.685,338.517,370.685,338.517z"/>
	<path style="fill:#A287CC;" d="M146.048,434.522c-27.021,29.526-21.38,89.793,11.629,107.032
		c-16.463,35.396,24.14,107.813,71.294,96.316c5.703,13.128,15.521,22.167,27.562,27.679c9.545-36.646,8.323-86.173-5.868-137.85
		c-20.227-73.654-60.872-130.103-100.596-145.864C143.554,398.45,141.774,417.122,146.048,434.522z"/>
	<path style="fill:#947FBF;" d="M157.067,581.431c6.918,7.731,54.116,55.336,68.358,12.207c0,0,19.938,40.283-19.123,36.213
		C167.24,625.781,157.067,581.431,157.067,581.431z"/>
	<path id="XMLID_1_" style="fill:#BCA1E5;" d="M357.288,150.097c-21.807-4.596-43.986,10.836-46.114,30.107
		c-20.584-5.295-54.733,23.286-60.711,56.119c-14.691,0.944-28.089,7.52-38.98,17.604c46.407,44.934,131.125,79.504,179.952,91.101
		C396.318,207.702,385.554,156.054,357.288,150.097z"/>
	<path style="fill:#AD90D3;" d="M323.383,158.57c-0.61,9.46,6.103,42.113,40.893,37.841c0,0-15.563,2.136-25.024,31.127
		c0,0,7.066-13.456-7.324-24.108C308.43,186.035,323.383,158.57,323.383,158.57z"/>
	<path style="fill:#AD90D3;" d="M220.339,263.853c7.73,1.628,28.482,11.393,37.841,10.783c0,0-2.849,9.155,27.465,30.72
		C256.628,294.553,241.534,285.875,220.339,263.853z"/>
	<path style="fill:#AD90D3;" d="M282.796,313.9c39.061-10.07,19.108-51.878,19.108-51.878s17.206,8.85,20.258,28.38
		c3.052,19.531-20.446,33.874-20.446,33.874L282.796,313.9z"/>
	<path style="fill:#AD90D3;" d="M257.569,230.284c1.878,25.994,33.365,30.11,33.365,30.11c-14.852-4.475-41.707-35.603,2.653-78.162
		c-12.549,5.052-26.049,12.958-34.512,31.596C257.734,218.627,257.121,224.083,257.569,230.284z"/>
	<path style="fill:#E57091;" d="M406.075,590.25c0-148.813-0.602-247.282-0.602-312.686c0-81.237,6.728-128.798,36.421-134.677
		c22.12-4.38,42.716,11.757,46.881,30.995c25.005-4.275,51.249,22.063,57.152,54.733c44.491,2.702,77.16,55.899,64.771,102.843
		c32.125,17.171,49.209,58.799,40.133,94.784c27.221,29.413,22.004,83.32-10.981,113.305c16.581,35.414-18.762,93.92-73.588,89.983
		C537.373,694.773,406.075,660.19,406.075,590.25z"/>
	<path style="fill:#F484A6;" d="M542.401,424.373c-8.006-1.739-17.224,5.295-20.759,21.561c-3.534,16.26-3.242,32.792,4.759,34.534
		c8.004,1.738,23.851-11.284,27.386-27.545C557.323,436.66,550.405,426.114,542.401,424.373z"/>
	<path style="fill:#F484A6;" d="M634.496,515.341c6.348,4.436,15.939-2.545,20.608-15.448c4.45-12.307,2.078-23.747-4.523-25.882
		c-6.03-1.948-13.842,4.573-18.053,14.773C628.148,499.395,628.749,511.315,634.496,515.341z"/>
	<path style="fill:#F484A6;" d="M586.28,560.505c6.348,4.438,15.939-2.544,20.608-15.447c4.449-12.308,2.077-23.747-4.524-25.883
		c-6.03-1.947-13.842,4.574-18.052,14.773C579.931,544.559,580.531,556.479,586.28,560.505z"/>
	<path style="fill:#F484A6;" d="M524.379,617.962c-1.393,6.306,7.048,11.464,18.478,10.94c10.903-0.503,18.958-5.984,18.494-11.753
		c-0.424-5.268-7.941-9.203-17.143-9.188C534.636,607.977,525.644,612.247,524.379,617.962z"/>
	<path style="fill:#D65B81;" d="M601.391,445.123c12.614-1.222,45.572-32.958,47.199-68.765c0,0,16.683,47.199-9.358,64.289
		C614.434,456.92,601.391,445.123,601.391,445.123z"/>
	<path style="fill:#D86488;" d="M495.382,663.887c2.871-41.566-1.043-94.914-12.549-151.957
		c-17.463-86.586-47.751-158.563-77.297-190.894c0.154,63.446,0.539,150.239,0.539,269.214
		C406.075,631.575,451.913,660.549,495.382,663.887z"/>
	<path style="fill:#E57091;" d="M509.295,527.981c-5.84-21.931-19.71-37.277-30.981-34.278
		c-11.271,3.002-15.675,23.215-9.835,45.147c5.84,21.933,19.711,37.28,30.982,34.279
		C510.732,570.129,515.134,549.916,509.295,527.981z"/>
	<path style="fill:#F484A6;" d="M545.928,228.615c-5.903-32.67-32.147-59.009-57.152-54.733
		c-4.165-19.238-24.761-35.374-46.881-30.995c-40.546,8.028-36.603,94.919-36.293,202.154
		c-12.64,63.156,61.197,45.249,67.619,36.912c17.394-22.583,4.883-52.794,72.63-36.01c29.356,7.273,54.014-6.408,64.849-14.485
		C623.088,284.514,590.419,231.317,545.928,228.615z"/>
	<path style="fill:#E57091;" d="M434.159,235.167c-11.8,8.544-18.716,41.91,9.766,45.979c0,0-26.855,11.393-36.62-14.649
		C399.5,245.686,434.159,235.167,434.159,235.167z"/>
	<path style="fill:#E57091;" d="M570.24,283.874c13.811-4.636,24.979-35.514-0.993-47.893c0,0,32.143,9.766,34.178,30.924
		C605.022,283.516,570.24,283.874,570.24,283.874z"/>
	<path style="fill:#99536A;" d="M464.946,227.202c-17.017,7.518-34.858-14.704-34.858-14.704
		c20.212,30.796,50.574,23.964,60.728-4.828c12.999,17.075,30.667,10.615,30.667,10.615c-8.276,1.517-22.571,0.661-26.48-14.223
		c-2.589-9.864,12.815-41.47-24.69-50.234C500.119,177.411,487.622,217.184,464.946,227.202z"/>
	<path style="fill:#99536A;" d="M420.412,296.856c19.809-4.316,27.281-9.712,27.281-9.712
		c-26.099,1.301-40.473-12.145-40.389-19.323c0.305-26.245,23.459-31.265,28.673-33.547c-17.754-4.03-25.766-21.105-28.33-46.742
		c-0.867,4.11-1.624,8.494-2.286,13.143c-2.532,15.167-2.739,39.405-3.852,61.497c-0.07,5.183-0.104,10.509-0.104,16.003
		c0,34.302,0.173,77.706,0.336,132.69C408.708,393.176,394.939,302.408,420.412,296.856z"/>
	<path style="fill:#675191;" d="M267.538,200.277c-12.512,19.225-14.445,53.608,25.634,60.118c0,0-41.117,7.301-47.402-39.062
		L267.538,200.277z"/>
	<path style="fill:#99536A;" d="M583.996,241.576c-18.898-13-56.074-15.796-63.611,24.103c0,0-6.243-41.29,40.267-46.384
		L583.996,241.576z"/>
	<path style="fill:#675191;" d="M378.984,342.79c-8.665-9.633-26.418-14.852-43.878-7.325c20.898-5.9,38.449,6.307,41.526,18.107
		c13.51,51.823-17.19,10.986-58.082,21.565c-39.712,10.275-36.628-34.469-10.313-53.913c28.498-21.057,18.275-48.217-6.333-59.203
		c28.228,24.821,17.732,39.061-2.352,60.423c-28.109,29.897-18.711,73.609,3.8,64.899c20.697-8.008,35.293-9.059,45.07-4.672
		c20.838,9.35,27.63,20.785,39.555,5.282C397.234,375.919,390.938,356.079,378.984,342.79z"/>
	<path style="fill:#675191;" d="M395.403,201.599c-13.122-7.629,8.544,76.292-12.207,82.7c-13.79,4.259-18.92,9.155-18.92,9.155
		c18.259-1.782,26.721,12.316,27.595,18.492c1.617,11.43-14.73,25.263-18.338,27.385l21.26,45.571
		C394.792,317.841,395.403,201.599,395.403,201.599z"/>
	<path style="fill:#99536A;" d="M404.457,261.615c8.138,13.428,35.258,29.47,51.978,10.453c16.717-19.017,33.227,6.977,29.531,22.84
		c0,0-7.056-37.163-25.359-17.424c-25.237,27.214-52.082,4.882-52.082,4.882L404.457,261.615z"/>
	<path style="fill:#675191;" d="M326.333,149.314c-2.441,9.765-14.749,38.552,8.036,51.98c22.786,13.427,2.136,41.198-14.14,42.011
		c0,0,33.67-23.196,9.766-38.248c-32.958-20.751-15.462-43.944-15.462-43.944L326.333,149.314z"/>
	<path style="fill:#675191;" d="M145.792,403.864c1.263,9.986,0.224,41.278,26.326,45.536c26.103,4.26,16.918,37.625,2.043,44.28
		c0,0,22.977-33.821-4.757-39.187c-38.237-7.399-30.333-35.355-30.333-35.355L145.792,403.864z"/>
	<path style="fill:#99536A;" d="M430.46,390.84c8.885,0.907,33.429,9.516,38.225,21.186c0,0-5.049-17.308-23.506-24.559
		L430.46,390.84z"/>
	<path style="fill:#99536A;" d="M401.869,332.092c4.659,5.49,17.86,18.639,28.868,17.162c0,0-10.419,6.947-21.56-1.64
		L401.869,332.092z"/>
	<path style="fill:#675191;" d="M284.867,231.157c9.31-10.789,30.985-40.614,24.736-61.688
		C309.178,168.037,340.809,193.286,284.867,231.157z"/>
	<path style="fill:#AD90D3;" d="M387.367,566.376c5.019-6.985,16.829-43.039-3.255-67.949L387.367,566.376z"/>
	<path style="fill:#947FBF;" d="M283.203,536.267c5.233,9.358,91.773,41.908,112.302,0.406c0,0,0.403,30.516-13.283,36.62
		C325.949,588.19,299.731,563.388,283.203,536.267z"/>
	<path style="fill:#675191;" d="M157.678,602.589c23.192,20.141,73.24,38.451,71.409-4.273c0,0,18.272,57.795,93.991-3.051
		c34.179-27.465,68.968-29.907,68.968-29.907s3.255,11.439,1.221,18.311c-7.121-24.617-148.921,55.541-61.644,82.394
		c0,0-65.194,34.093-104.399-25.611c-0.399-0.608-0.795-1.227-1.188-1.853C191.904,645.759,174.948,629.908,157.678,602.589z"/>
	<path style="fill:#99536A;" d="M669.748,462.821c3.662,34.18-23.617,84.504-50.544,47.845c0,0,14.733,92.803-81.288,66.289
		c-81.784-22.583-134.273,5.493-134.273,5.493s-6.714,54.93,48.827,73.239c46.171-73.354,138.804-69.572,109.86-17.394
		c0,0,95.287-19.665,86.297-93.763c-0.092-0.754-0.192-1.515-0.3-2.28C670.358,523.245,674.388,496.309,669.748,462.821z"/>
	<path style="fill:#AD90D3;" d="M385.23,493.441c5.019-5.093,16.829-31.379-3.256-49.54L385.23,493.441z"/>
	<path style="fill:#BCA1E5;" d="M375.16,338.518c11.571-3.168,33.772-37.841-5.697-45.165
		C384.426,307.517,387.772,320.261,375.16,338.518z"/>
	<path style="fill:#675191;" d="M367.43,574.513c-28.889,6.104-75.275-15.868-85.854-41.502c0,0,7.732,50.454,75.275,48.826
		L367.43,574.513z"/>
	<path style="fill:#99536A;" d="M514.363,590.328c9.302-9.418,29.18-19.299,23.771-38.799
		c-5.404-19.498,10.333-41.566,24.963-44.908c0,0-27.171,15.623-16.451,39.16c10.721,23.535-11.541,43.201-11.541,43.201
		L514.363,590.328z"/>
	<path style="fill:#675191;" d="M393.063,511.444c-9.359-9.357-19.124-29.295-38.654-24.005
		c-19.531,5.289-41.503-10.58-44.758-25.228c0,0,15.462,27.262,39.062,16.683c23.6-10.58,43.13,11.799,43.13,11.799L393.063,511.444
		z"/>
	<path style="fill:#675191;" d="M391.13,454.583c-14.546-18.515-29.296-9.155-29.296-17.396c0-8.239,31.737,0,31.737,0
		L391.13,454.583z"/>
	<path style="fill:#99536A;" d="M400.869,501.94c32.07,17.643,38.147-6.82,41.834,0.555c1.831,23.192-36.715,18.356-36.715,18.356
		L400.869,501.94z"/>
	<path style="fill:#675191;" d="M223.688,625.731c8.816-21.833-6.642-29.966,0.505-34.069c7.144-4.102,15.796,27.528,15.796,27.528
		L223.688,625.731z"/>
	<path style="fill:#675191;" d="M377.856,437.035c9.308-7.781,8.544-33.008-10.224-44.605l21.972-11.851l4.425,59.507
		L377.856,437.035z"/>
	<path style="fill:#99536A;" d="M401.964,437.185c9.358-15.318,24.465-52.396,43.995-43.739
		c19.531,8.659,36.162-12.875,39.417-36.852c0,0-15.462,44.625-39.061,27.309c-23.601-17.318-43.131,19.314-43.131,19.314
		L401.964,437.185z"/>
	<path style="fill:#99536A;" d="M416.563,464.386c-9.309,7.782-8.545,33.009,10.223,44.605l-21.973,11.851l-4.425-59.507
		L416.563,464.386z"/>
	<path style="fill:#675191;" d="M226.645,579.191c-7.934-15.258-10.07-30.211-36.62-49.438c0,0,28.38,13.886,34.179-36.314
		C219.778,535.4,218.516,559.563,226.645,579.191z"/>
	<path style="fill:#99536A;" d="M495.801,518.574c6.591-11.322,15.346-18.79,16.908-43.714c0,0,2.622,23.927,37.301,7.208
		C521.194,496.315,505.126,505.344,495.801,518.574z"/>
	<path style="fill:#99536A;" d="M438.59,336.062c11.095-0.005,20.517-3.068,38.765,5.896c0,0-15.552-11.463,12.728-28.771
		C466.336,327.426,452.33,334.928,438.59,336.062z"/>
	<path style="fill:#675191;" d="M268.599,303.976c-14.286-16.523-14.895-15.302-11.844-27.102c0,0-7.935,2.645-34.178-10.172
		C245.565,280.739,251.873,288.267,268.599,303.976z"/>
	<path style="fill:#675191;" d="M154.626,548.065c3.255-4.476,10.172-10.173,28.889,0.813c0,0-18.311-22.38-35.807-9.765
		L154.626,548.065z"/>
	<path style="fill:#99536A;" d="M605.663,258.36c-4.207,9.219-10.184,29.1-52.692,22.786c0,0,34.586,13.835,61.486-8.844
		L605.663,258.36z"/>
	<path style="fill:#675191;" d="M229.629,428.288c-29.431,31.483-98.99,24.658-80.317-48.769c0,0-36.132,52.97,19.556,73.334
		C206.375,466.569,229.629,428.288,229.629,428.288z"/>
	<path style="fill:#99536A;" d="M561.445,409.133c18.353,40.525,90.292,60.256,97.445-15.493c0,0,17.493,63.156-45.34,61.308
		C571.231,453.703,561.445,409.133,561.445,409.133z"/>
	<path style="fill:#99536A;" d="M493.183,481.982c-23.523-35.834-91.37-44.233-84.501,28.704c0,0-26.723-57.442,29.839-64.713
		C476.615,441.079,493.183,481.982,493.183,481.982z"/>
	<path style="fill:#99536A;" d="M552.514,343.098c-0.972-0.257-1.91-0.456-2.822-0.612c-12.898-4.957-35.413-14.928-41.381-26.077
		c-9.734-18.185,20.212-39.131,20.212-39.131c-41.492,24.324-31.955,55.372,10.257,65.879
		c-19.898,7.016-17.786,46.295-17.786,46.295c1.525-17.6,6.236-34.426,21.687-37.733c15.451-3.307,51.769-1.44,69.04-22.068
		C611.72,329.65,587.018,352.211,552.514,343.098z"/>
	<path style="fill:#675191;" d="M295.816,496.797c-0.481-0.882-0.982-1.7-1.495-2.472c-5.262-12.776-13.489-35.985-9.491-47.981
		c6.522-19.568,42.316-12.207,42.316-12.207c-46.182-13.428-62.185,14.836-40.812,52.723c-18.769-9.635-45.856,18.89-45.856,18.89
		c13.834-10.986,29.296-19.126,42.316-10.173c13.02,8.952,36.62,36.62,63.475,34.992
		C346.271,530.568,312.906,528.126,295.816,496.797z"/>
	<path style="fill:#675191;" d="M237.492,376.414c2.673,18.409-23.525,29.629-23.525,29.629
		c35.094-11.199,36.667-42.277,11.661-59.795c19.938-7.934,18.46-26.689,18.46-26.689c-0.761,8.379-5.426,21.92-20.812,21.687
		c-10.198-0.155-36.506-23.48-55.02,10.292C198.977,329.158,233.931,351.879,237.492,376.414z"/>
	<path style="fill:#675191;" d="M256.552,413.183c0,0,46.996-29.297,71.409-34.79C298.475,377.584,280.189,384.042,256.552,413.183z
		"/>
	<path style="fill:#99536A;" d="M559.047,462.805c2.392-5.36,16.143-25.114,34.921-12.911l-11.643-13.099
		C570.646,442.249,563.171,449.629,559.047,462.805z"/>
	<path style="fill:#D86488;" d="M500.685,585.499c-3.122-8.189-42.286-3.813-56.616,1.652
		c-14.332,5.463-23.418,16.531-20.295,24.721c3.122,8.189,17.272,10.397,31.603,4.933
		C469.707,611.342,503.809,593.688,500.685,585.499z"/>
	<path style="fill:#E57091;" d="M606.62,589.227c3.006,3.367,21.046-5.94,26.938-11.204c5.891-5.264,8.228-12.261,5.22-15.627
		c-3.009-3.363-10.225-1.825-16.113,3.435C616.771,571.099,603.608,585.862,606.62,589.227z"/>
	<path style="fill:#99536A;" d="M623.771,339.738c13.426,16.683,5.696,35.4-7.324,46.792l33.365-8.544
		C649.811,377.986,646.557,344.621,623.771,339.738z"/>
	<path style="fill:#99536A;" d="M420.731,388.565c-10.172-4.476-18.309-25.634-6.51-41.91c0,0-18.31-31.738,6.104-52.489
		c0,0-19.125,0.814-18.718,30.924c0.407,30.109,3.662,86.261,3.662,86.261L420.731,388.565z"/>
	<path style="fill:#AD90D3;" d="M155.919,508.288c-2.713-9.274-8.497-15.743-12.919-14.45c-4.421,1.294-5.806,9.861-3.093,19.135
		c2.713,9.275,8.497,15.745,12.918,14.451S158.631,517.563,155.919,508.288z"/>
	<path style="fill:#E57091;" d="M428.86,546.08c-4.182-8.711-10.939-14.157-15.091-12.163c-4.153,1.993-4.13,10.673,0.052,19.385
		c4.182,8.712,10.938,14.158,15.092,12.164C433.064,563.471,433.042,554.794,428.86,546.08z"/>
	<path style="fill:#D0BDF4;" d="M361.699,167.398c2.145-5.096-4.171-10.746-13.879-12.07c-9.26-1.262-16.898,2.108-17.397,7.038
		c-0.456,4.505,5.27,8.984,13.024,10.394C351.517,174.226,359.753,172.019,361.699,167.398z"/>
	<path style="fill:#FFB6CE;" d="M446.736,164.264c-2.109-5.111-10.568-4.604-18.344,1.36c-7.416,5.689-10.399,13.486-7.248,17.311
		c2.879,3.495,10.091,2.581,16.549-1.933C444.418,176.302,448.648,168.898,446.736,164.264z"/>
	<path style="fill:#FFB6CE;" d="M575.629,250.424c2.188-4.25-2.877-9.542-11.16-11.331c-7.9-1.705-14.706,0.691-15.466,4.908
		c-0.691,3.853,3.946,8.095,10.534,9.827C566.396,255.632,573.642,254.277,575.629,250.424z"/>
	<path style="fill:#FFB6CE;" d="M601.671,304.134c2.188-4.25-2.878-9.542-11.16-11.331c-7.899-1.705-14.706,0.691-15.466,4.908
		c-0.691,3.854,3.945,8.095,10.534,9.827C592.438,309.341,599.684,307.987,601.671,304.134z"/>
	<path style="fill:#FFB6CE;" d="M458.194,243.398c-0.012-4.088-5.677-6.282-12.354-4.583c-6.369,1.622-10.401,5.996-9.366,9.527
		c0.949,3.227,5.908,4.771,11.337,3.658C453.462,250.84,458.205,247.105,458.194,243.398z"/>
	<path style="fill:#FFB6CE;" d="M474.54,351.835c1.545-3.004-2.033-6.742-7.885-8.006c-5.582-1.204-10.39,0.489-10.926,3.468
		c-0.488,2.723,2.788,5.72,7.443,6.943C468.019,355.514,473.136,354.557,474.54,351.835z"/>
	<path style="fill:#FFB6CE;" d="M599.044,466.76c1.544-3.004-2.034-6.741-7.886-8.006c-5.582-1.204-10.39,0.489-10.925,3.467
		c-0.487,2.723,2.787,5.72,7.442,6.943C592.521,470.439,597.639,469.48,599.044,466.76z"/>
	<path style="fill:#E57091;" d="M464.085,605.993c0.919-4.392-5.112-7.862-13.205-7.349c-7.719,0.487-13.371,4.393-12.982,8.389
		c0.355,3.648,5.725,6.284,12.241,6.157C456.923,613.059,463.249,609.977,464.085,605.993z"/>
	<path style="fill:#FFB6CE;" d="M542.058,249.231c-0.418-2.501-3.197-3.96-6.046-3.055c-2.715,0.862-4.098,3.457-3.273,5.638
		c0.753,1.993,3.148,3.04,5.49,2.468C540.667,253.689,542.434,251.501,542.058,249.231z"/>
	<path style="fill:#FFB6CE;" d="M566.877,295.617c-0.417-2.501-3.197-3.96-6.045-3.056c-2.716,0.863-4.099,3.458-3.274,5.639
		c0.753,1.993,3.149,3.04,5.49,2.468C565.487,300.073,567.253,297.885,566.877,295.617z"/>
	<path style="fill:#FFB6CE;" d="M475.422,283.013c-0.417-2.502-3.197-3.961-6.045-3.056c-2.716,0.862-4.098,3.458-3.275,5.638
		c0.753,1.993,3.15,3.04,5.49,2.468C474.032,287.469,475.799,285.281,475.422,283.013z"/>
	<path style="fill:#D0BDF4;" d="M385.15,315.708c3.51-4.271-0.93-11.489-9.857-15.528c-8.516-3.853-16.797-2.803-18.682,1.78
		c-1.723,4.187,2.487,10.114,9.517,13.678C373.444,319.347,381.968,319.582,385.15,315.708z"/>
	<path style="fill:#BCA1E5;" d="M226.611,379.344c4.957-2.447,3.882-10.854-2.592-18.21c-6.174-7.016-14.154-9.469-17.758-6.069
		c-3.293,3.108-1.897,10.241,3.042,16.383C214.443,377.842,222.116,381.564,226.611,379.344z"/>
	<path style="fill:#BCA1E5;" d="M386.12,465.754c3.158-3.378-0.164-9.642-7.401-13.488c-6.904-3.671-13.874-3.234-15.692,0.489
		c-1.661,3.403,1.537,8.577,7.216,11.927C376.152,468.169,383.256,468.817,386.12,465.754z"/>
	<path style="fill:#BCA1E5;" d="M378.185,513.359c3.159-3.377-0.163-9.641-7.401-13.487c-6.904-3.672-13.874-3.235-15.692,0.489
		c-1.661,3.403,1.537,8.576,7.216,11.926C368.218,515.774,375.322,516.424,378.185,513.359z"/>
	<path style="fill:#AD90D3;" d="M369.995,638.577c0.298-5.054-8.371,1.737-21.893,7.956c-12.9,5.927-23.852,7.81-22.051,11.542
		c1.647,3.409,11.469,2.273,22.447-2.452C359.921,650.706,369.729,643.159,369.995,638.577z"/>
	<path style="fill:#BCA1E5;" d="M357.523,449.648c0.866-2.472-2.288-4.961-6.92-5.305c-4.419-0.326-7.935,1.49-8.026,3.838
		c-0.084,2.144,2.756,4.097,6.466,4.536C352.906,453.177,356.738,451.892,357.523,449.648z"/>
	<path style="fill:#D0BDF4;" d="M381.113,188.626c1.057-3.431-1.52-8.228-5.755-10.715c-4.235-2.487-8.524-1.721-9.581,1.71
		c-1.056,3.431,1.521,8.229,5.755,10.714C375.768,192.822,380.057,192.058,381.113,188.626z"/>
	<path style="fill:#D0BDF4;" d="M299.61,188.59c-1.812-2.11-6.018-2.403-9.397-0.657c-3.379,1.747-4.65,4.873-2.839,6.983
		c1.812,2.11,6.019,2.403,9.396,0.657C300.15,193.825,301.42,190.7,299.61,188.59z"/>
	<path style="fill:#BCA1E5;" d="M372.565,352.564c-0.293-4.288-8.721-10.333-18.83-13.504c-10.106-3.17-18.063-2.264-17.773,2.022
		c0.292,4.288,6.683,4.067,16.788,7.236C362.862,351.489,372.855,356.85,372.565,352.564z"/>
	<path style="fill:#675191;" d="M333.454,326.107c-5.188-3.662-18.31-9.155-16.479-15.258c1.831-6.103-10.681,10.07-10.681,10.07
		L333.454,326.107z"/>
	<path style="fill:#D0BDF4;" d="M317.713,329.245c-0.53-2.125-3.544-3.204-6.734-2.409c-3.189,0.795-5.344,3.164-4.814,5.289
		c0.53,2.125,3.544,3.205,6.734,2.409C316.089,333.738,318.244,331.37,317.713,329.245z"/>
	<path style="fill:#D0BDF4;" d="M193.68,352.397c-0.208-2.694-3.653-4.624-7.694-4.313c-4.04,0.313-7.147,2.75-6.939,5.443
		c0.209,2.693,3.653,4.624,7.693,4.313C190.781,357.528,193.888,355.089,193.68,352.397z"/>
	<path style="fill:#BCA1E5;" d="M373.78,366.314c-1.838,0.176-3.136,2.353-2.897,4.864c0.239,2.51,1.925,4.402,3.763,4.227
		c1.839-0.177,3.136-2.353,2.896-4.864C377.304,368.03,375.619,366.139,373.78,366.314z"/>
	<path style="fill:#D0BDF4;" d="M307.831,284.751c1.685-1.4,0.952-5.059-1.638-8.175c-2.589-3.115-6.055-4.503-7.74-3.103
		c-1.684,1.399-0.952,5.06,1.638,8.174C302.681,284.763,306.146,286.151,307.831,284.751z"/>
	<path style="fill:#D0BDF4;" d="M332.135,223.575c1.681-0.794,1.743-4.183,0.14-7.572c-1.603-3.389-4.265-5.491-5.947-4.695
		c-1.68,0.793-1.744,4.183-0.14,7.571C327.791,222.268,330.454,224.369,332.135,223.575z"/>
	<path style="fill:#675191;" d="M283.203,366.593c-0.407-6.918-12.207-17.903-26.041-20.751c0,0,16.276,2.848,29.703-0.814
		L283.203,366.593z"/>
	<path style="fill:#BCA1E5;" d="M240.756,317.19c0.298-8.647-2.556-15.764-6.374-15.896c-3.818-0.131-3.337,8.191-3.635,16.838
		c-0.3,8.647-1.263,14.345,2.556,14.476C237.12,332.74,240.457,325.838,240.756,317.19z"/>
	<path style="fill:#AD90D3;" d="M221.681,494.564c1.679-16.883-4.301-31.299-13.358-32.199
		c-9.057-0.901-17.759,12.055-19.438,28.938c-1.679,16.882,4.301,31.298,13.357,32.2
		C211.299,524.402,220.002,511.445,221.681,494.564z"/>
	<path style="fill:#BCA1E5;" d="M213.627,484.753c3.115-0.118,4.905-4.08,3.749-8.634c-1.103-4.344-4.355-7.006-7.066-6.196
		c-2.478,0.739-3.759,4.197-3.023,7.908C208.052,481.692,210.802,484.86,213.627,484.753z"/>
	<path style="fill:#BCA1E5;" d="M176.145,475.393c2.902-1.138,3.292-5.469,0.703-9.389c-2.47-3.74-6.416-5.185-8.711-3.53
		c-2.098,1.513-2.171,5.201-0.257,8.464C169.873,474.333,173.511,476.421,176.145,475.393z"/>
	<path style="fill:#AD90D3;" d="M261.864,568.56c-8.427-21.578-22.136-35.497-30.617-31.085c-8.482,4.409-8.528,25.477-0.1,47.056
		c8.427,21.577,22.135,35.494,30.618,31.085C270.246,611.204,270.292,590.137,261.864,568.56z"/>
	<path style="fill:#AD90D3;" d="M180.787,547.805c-9.745-3.913-18.828-0.755-20.287,7.059c-1.459,7.812,5.258,17.315,15.003,21.229
		c9.746,3.913,18.828,0.753,20.288-7.06C197.249,561.223,190.533,551.717,180.787,547.805z"/>
	<path style="fill:#BCA1E5;" d="M293.051,317.878c-3.228-7.484-13.726-10.153-23.447-5.958c-9.721,4.193-14.986,13.66-11.758,21.143
		c3.227,7.484,13.726,10.152,23.447,5.958C291.015,334.827,296.279,325.361,293.051,317.878z"/>
	<path style="fill:#F484A6;" d="M621.342,346.361c-4.408-9.074-16.777-3.835-35.213,5.118
		c-18.434,8.954-35.957,18.234-31.552,27.307c4.408,9.073,29.074,14.503,47.509,5.55
		C620.521,375.382,625.748,355.434,621.342,346.361z"/>
	<path style="fill:#E57091;" d="M423.623,471.322c-2.996,9.229,9.073,13.85,27.826,19.94c18.752,6.093,37.088,11.347,40.088,2.118
		c2.995-9.229-10.481-29.447-29.232-35.539C443.552,451.751,426.622,462.092,423.623,471.322z"/>
	<path style="fill:#F484A6;" d="M506.194,339.833c-8.108-1.172-16.808,6.495-19.188,22.968c-2.382,16.47-0.928,32.941,7.179,34.115
		c8.105,1.17,22.995-12.936,25.375-29.406C521.943,351.038,514.3,341.004,506.194,339.833z"/>
	<path style="fill:#F484A6;" d="M458.376,467.255c1.422-3.358-2.734-7.093-9.136-7.98c-6.105-0.844-11.143,1.368-11.479,4.619
		c-0.307,2.97,3.463,5.93,8.572,6.87C451.652,471.743,457.084,470.298,458.376,467.255z"/>
	<path style="fill:#F484A6;" d="M474.352,512.249c2.531,2.627,7.597,0.27,10.925-5.27c3.172-5.283,3.114-10.785,0.257-12.371
		c-2.61-1.447-6.812,0.858-9.683,5.19C472.862,504.304,472.06,509.867,474.352,512.249z"/>
	<path style="fill:#FFB6CE;" d="M615.576,354.945c-0.563-2.876-4.517-3.946-8.591-2.194c-3.886,1.671-5.892,5.086-4.741,7.483
		c1.049,2.189,4.457,2.863,7.807,1.626C613.538,360.575,616.086,357.551,615.576,354.945z"/>
	<path style="fill:#D86488;" d="M528.459,644.249c-23.612,5.858-45.281,0.802-49.533-12.064c-0.058-0.173-0.096-0.349-0.146-0.522
		c-4.806,6.355-6.67,12.996-4.736,18.833c4.252,12.866,25.921,17.923,49.533,12.063c24.578-6.102,45.083-22.438,44.893-37.485
		c-0.018-1.421-0.227-2.771-0.593-4.055C560.203,631.094,545.288,640.07,528.459,644.249z"/>
	<path style="fill:#BCA1E5;" d="M287.918,606.495c4.784-5.116-0.249-14.606-11.214-20.434c-10.458-5.564-21.017-4.902-23.77,0.739
		c-2.517,5.155,2.328,12.993,10.932,18.069C272.819,610.153,283.581,611.138,287.918,606.495z"/>
	<defs>
		<filter id="Adobe_OpacityMaskFilter" filterUnits="userSpaceOnUse" x="118.447" y="123.726" width="563.285" height="552.921">
			<feFlood  style="flood-color:white;flood-opacity:1" result="back"/>
			<feBlend  in="SourceGraphic" in2="back" mode="normal"/>
		</filter>
	</defs>
	<mask maskUnits="userSpaceOnUse" x="118.447" y="123.726" width="563.285" height="552.921" id="SVGID_1_">
		<g style="filter:url(#Adobe_OpacityMaskFilter);">
			<defs>
				
					<filter id="Adobe_OpacityMaskFilter_00000128479716235461750090000008145255614473378491_" filterUnits="userSpaceOnUse" x="118.447" y="123.726" width="563.285" height="552.921">
					<feFlood  style="flood-color:white;flood-opacity:1" result="back"/>
					<feBlend  in="SourceGraphic" in2="back" mode="normal"/>
				</filter>
			</defs>
			<mask maskUnits="userSpaceOnUse" x="118.447" y="123.726" width="563.285" height="552.921" id="SVGID_1_">
				<g style="filter:url(#Adobe_OpacityMaskFilter_00000128479716235461750090000008145255614473378491_);">
				</g>
			</mask>
			
				<radialGradient id="SVGID_00000128472235047589588940000011094351960236538025_" cx="400.0895" cy="400.1864" r="341.9841" gradientUnits="userSpaceOnUse">
				<stop  offset="0" style="stop-color:#666666"/>
				<stop  offset="1" style="stop-color:#B3B3B3"/>
			</radialGradient>
			<path style="mask:url(#SVGID_1_);fill:url(#SVGID_00000128472235047589588940000011094351960236538025_);" d="M662.646,424.307
				c9.904-38.044-8.734-82.051-43.775-100.204c13.512-49.628-22.122-105.866-70.657-108.723
				c-6.439-34.538-35.068-62.383-62.343-57.862c-4.545-20.338-27.012-37.398-51.141-32.767
				c-23.749,4.557-34.031,32.806-37.827,81.409c-3.1-48.821-11.886-77.056-33.809-81.57c-23.554-4.851-47.376,11.441-49.543,31.786
				c-22.24-5.589-58.886,24.586-65.118,59.245c-47.467,2.988-82.128,59.32-68.792,108.912
				c-34.082,18.179-52.347,62.161-42.53,100.324c-28.952,31.173-23.681,101.552,12.041,119.747
				c-8.964,19.114-1.436,46.681,14.851,67.43c11.897,16.603,24.645,27.214,43.768,28.196c6.163,1.004,12.538,0.924,19.008-0.471
				c0.148,0.23,0.295,0.466,0.444,0.693c1.627,2.478,3.303,4.779,5.013,6.943c35.303,54.03,150.202,27.501,165.935-33.053
				c19.236,62.366,143.179,88.447,172.225,24.875c59.806,4.163,98.361-57.688,80.273-95.129
				C686.651,512.391,692.345,455.401,662.646,424.307z"/>
		</g>
	</mask>
	
		<radialGradient id="SVGID_00000017499915689338723380000013342904264722347963_" cx="400.0895" cy="400.1864" r="341.9841" gradientUnits="userSpaceOnUse">
		<stop  offset="0" style="stop-color:#FFD182"/>
		<stop  offset="1" style="stop-color:#510028"/>
	</radialGradient>
	<path style="opacity:0.8;fill:url(#SVGID_00000017499915689338723380000013342904264722347963_);" d="M662.646,424.307
		c9.904-38.044-8.734-82.051-43.775-100.204c13.512-49.628-22.122-105.866-70.657-108.723
		c-6.439-34.538-35.068-62.383-62.343-57.862c-4.545-20.338-27.012-37.398-51.141-32.767c-23.749,4.557-34.031,32.806-37.827,81.409
		c-3.1-48.821-11.886-77.056-33.809-81.57c-23.554-4.851-47.376,11.441-49.543,31.786c-22.24-5.589-58.886,24.586-65.118,59.245
		c-47.467,2.988-82.128,59.32-68.792,108.912c-34.082,18.179-52.347,62.161-42.53,100.324
		c-28.952,31.173-23.681,101.552,12.041,119.747c-8.964,19.114-1.436,46.681,14.851,67.43
		c11.897,16.603,24.645,27.214,43.768,28.196c6.163,1.004,12.538,0.924,19.008-0.471c0.148,0.23,0.295,0.466,0.444,0.693
		c1.627,2.478,3.303,4.779,5.013,6.943c35.303,54.03,150.202,27.501,165.935-33.053c19.236,62.366,143.179,88.447,172.225,24.875
		c59.806,4.163,98.361-57.688,80.273-95.129C686.651,512.391,692.345,455.401,662.646,424.307z"/>
</g>
</svg>
